#!OML:ASF E:\motion texture\Top Level 1\Subject 1\Session 1\male.ASF
:FULLY-SPECIFIED
:DEGREES
364
root -22.2817 17.6705 4.31132 504.05 -81.3806 -496.479
lowerback 0.802944 1.5076 3.44526
upperback -1.71294 2.078 1.71097
thorax -2.14995 0.980649 -0.226204
lowerneck -13.3898 -4.77761 -5.72049
upperneck 12.052 -6.90872 9.66258
head 6.40779 -2.90174 3.35411
rclavicle 7.26185e-015 3.598e-014
rhumerus -29.0816 -23.2878 -66.7224
rradius 16.8651
rwrist 27.9861
rhand -14.2399 -29.1458
rfingers 7.12502
rthumb 11.8978 -418.788
lclavicle 7.26185e-015 3.598e-014
lhumerus -46.2813 47.2917 49.3437
lradius 11.1109
lwrist -77.3286
lhand -12.7214 19.143
lfingers 7.12502
lthumb 13.3617 48.6946
rfemur -3.25377 1.39249 25.527
rtibia 43.0201
rfoot -1.47415 -8.20605
rtoes -10.2404
lfemur -30.101 -0.593138 -10.7381
ltibia 25.9889
lfoot -1.59053 2.1391
ltoes -0.329841
365
root -22.4425 17.6803 4.33419 505.535 -81.4915 -498.232
lowerback 0.816922 1.44628 3.24706
upperback -1.70455 1.99366 1.58496
thorax -2.15341 0.942238 -0.243289
lowerneck -13.2615 -4.74251 -5.64886
upperneck 12.1965 -6.91114 9.74107
head 6.43243 -2.89672 3.36971
rclavicle -9.56651e-015 7.25564e-015
rhumerus -27.8683 -23.1391 -67.173
rradius 17.2789
rwrist 27.0327
rhand -14.6659 -29.414
rfingers 7.12502
rthumb 11.4869 -419.079
lclavicle -9.56651e-015 7.25564e-015
lhumerus -44.0724 48.0889 50.4952
lradius 11.2303
lwrist -77.2773
lhand -13.0572 19.8911
lfingers 7.12502
lthumb 13.0381 49.4636
rfemur -4.27957 0.84892 24.929
rtibia 45.2062
rfoot 1.52482 -8.62235
rtoes -7.4253
lfemur -29.3125 -0.502794 -11.3214
ltibia 26.2095
lfoot -2.07727 1.90643
ltoes 0.171812
366
root -22.6011 17.6902 4.35757 507.738 -81.639 -500.705
lowerback 0.833378 1.38789 2.95406
upperback -1.69818 1.91153 1.43091
thorax -2.16208 0.906444 -0.236275
lowerneck -13.1391 -4.71055 -5.58719
upperneck 12.3323 -6.91541 9.82255
head 6.45591 -2.89277 3.38764
rclavicle -6.50399e-015 -5.06901e-015
rhumerus -26.6225 -22.8002 -67.7315
rradius 17.7546
rwrist 25.8908
rhand -15.0032 -29.7062
rfingers 7.12502
rthumb 11.1617 -419.389
lclavicle -6.50399e-015 -5.06901e-015
lhumerus -41.365 48.3573 52.3348
lradius 11.417
lwrist -76.4892
lhand -13.3875 20.6239
lfingers 7.12502
lthumb 12.7196 50.2165
rfemur -5.32245 0.360516 24.2407
rtibia 47.3498
rfoot 4.26589 -9.22622
rtoes -4.69844
lfemur -28.4777 -0.511414 -12.0142
ltibia 26.3294
lfoot -2.59307 1.79196
ltoes 0.448095
367
root -22.7573 17.7001 4.38076 510.582 -81.8135 -503.81
lowerback 0.844797 1.32868 2.57628
upperback -1.70184 1.82631 1.25682
thorax -2.17983 0.870238 -0.202227
lowerneck -12.9931 -4.6778 -5.54745
upperneck 12.4453 -6.91539 9.91681
head 6.46891 -2.88796 3.41412
rclavicle 8.10669e-015 1.0138e-014
rhumerus -25.366 -22.2695 -68.3709
rradius 18.2926
rwrist 24.5925
rhand -15.2425 -30.0155
rfingers 7.12502
rthumb 10.9308 -419.711
lclavicle 8.10669e-015 1.0138e-014
lhumerus -38.2954 48.0905 54.687
lradius 11.665
lwrist -75.0203
lhand -13.6901 21.3496
lfingers 7.12502
lthumb 12.4279 50.9602
rfemur -6.39236 -0.0897263 23.4894
rtibia 49.4791
rfoot 6.44851 -10.035
rtoes -2.50189
lfemur -27.6258 -0.603877 -12.8001
ltibia 26.3732
lfoot -3.11838 1.77662
ltoes 0.518787
368
root -22.9114 17.71 4.40353 513.922 -81.9979 -507.399
lowerback 0.850621 1.26776 2.14006
upperback -1.71428 1.73695 1.07256
thorax -2.20441 0.832677 -0.145576
lowerneck -12.8486 -4.65033 -5.51915
upperneck 12.549 -6.91813 10.0042
head 6.47948 -2.88562 3.43994
rclavicle 1.41696e-014 1.09332e-015
rhumerus -24.1121 -21.5457 -69.0678
rradius 18.8963
rwrist 23.1777
rhand -15.3836 -30.3534
rfingers 7.12502
rthumb 10.7948 -420.056
lclavicle 1.41696e-014 1.09332e-015
lhumerus -35.0248 47.3259 57.3452
lradius 11.9682
lwrist -72.9739
lhand -13.9777 22.0512
lfingers 7.12502
lthumb 12.1506 51.6783
rfemur -7.48709 -0.520607 22.7078
rtibia 51.5941
rfoot 7.8933 -11.0719
rtoes -0.966099
lfemur -26.768 -0.756803 -13.653
ltibia 26.3599
lfoot -3.64073 1.84124
ltoes 0.447046
369
root -23.0631 17.7202 4.42531 517.413 -82.167 -511.126
lowerback 0.857042 1.20217 1.69279
upperback -1.73211 1.64051 0.896343
thorax -2.23485 0.791562 -0.0741379
lowerneck -12.7072 -4.62547 -5.50317
upperneck 12.6382 -6.91945 10.0863
head 6.48604 -2.88366 3.46619
rclavicle 5.42309e-015 -3.18055e-015
rhumerus -22.8695 -20.6795 -69.789
rradius 19.5545
rwrist 21.7403
rhand -15.4317 -30.6923
rfingers 7.12502
rthumb 10.7484 -420.397
lclavicle 5.42309e-015 -3.18055e-015
lhumerus -31.6954 46.0855 60.1383
lradius 12.3285
lwrist -70.4114
lhand -14.2669 22.7223
lfingers 7.12502
lthumb 11.8717 52.3658
rfemur -8.60269 -0.940359 21.9645
rtibia 53.6731
rfoot 8.56321 -12.3493
rtoes 0.0806543
lfemur -25.9087 -0.936951 -14.5063
ltibia 26.2992
lfoot -4.14406 1.94369
ltoes 0.335555
370
root -23.2128 17.7311 4.44578 520.698 -82.3103 -514.636
lowerback 0.863824 1.13078 1.27718
upperback -1.75457 1.53638 0.74462
thorax -2.26946 0.746002 0.00509735
lowerneck -12.5761 -4.60457 -5.49318
upperneck 12.7261 -6.92069 10.1481
head 6.49333 -2.88304 3.4867
rclavicle -4.9075e-016 1.17283e-014
rhumerus -21.6484 -19.6819 -70.5113
rradius 20.2588
rwrist 20.3178
rhand -15.4168 -31.0063
rfingers 7.12502
rthumb 10.7627 -420.711
lclavicle -4.9075e-016 1.17283e-014
lhumerus -28.4457 44.4183 62.9032
lradius 12.7451
lwrist -67.4113
lhand -14.5919 23.3526
lfingers 7.12502
lthumb 11.5583 53.0139
rfemur -9.73471 -1.36232 21.3134
rtibia 55.6755
rfoot 8.59438 -13.7848
rtoes 0.860118
lfemur -25.0499 -1.11435 -15.3053
ltibia 26.2018
lfoot -4.62734 2.04842
ltoes 0.256453
371
root -23.3604 17.743 4.46459 523.474 -82.4243 -517.628
lowerback 0.876874 1.05239 0.923732
upperback -1.77811 1.424 0.630267
thorax -2.30741 0.695364 0.0881724
lowerneck -12.4567 -4.58334 -5.49085
upperneck 12.809 -6.91607 10.1944
head 6.50014 -2.88068 3.50391
rclavicle 1.33869e-014 -2.78299e-015
rhumerus -20.4576 -18.5765 -71.217
rradius 21.0109
rwrist 18.9497
rhand -15.3658 -31.2562
rfingers 7.12502
rthumb 10.8119 -420.958
lclavicle 1.33869e-014 -2.78299e-015
lhumerus -25.3793 42.4103 65.5118
lradius 13.2214
lwrist -64.07
lhand -14.9657 23.9171
lfingers 7.12502
lthumb 11.1978 53.5982
rfemur -10.8737 -1.78165 20.795
rtibia 57.5508
rfoot 8.16239 -15.2698
rtoes 1.67056
lfemur -24.1872 -1.26398 -16.0042
ltibia 26.0716
lfoot -5.0937 2.12902
ltoes 0.184304
372
root -23.5064 17.7563 4.48162 525.549 -82.5171 -519.913
lowerback 0.89479 0.967831 0.648804
upperback -1.79853 1.30509 0.560872
thorax -2.34342 0.640387 0.173709
lowerneck -12.3593 -4.56536 -5.4933
upperneck 12.8971 -6.90997 10.2162
head 6.51151 -2.87866 3.51383
rclavicle 1.08151e-014 -1.0138e-014
rhumerus -19.2954 -17.3897 -71.8896
rradius 21.7966
rwrist 17.6558
rhand -15.3141 -31.4113
rfingers 7.12502
rthumb 10.8618 -421.11
lclavicle 1.08151e-014 -1.0138e-014
lhumerus -22.5417 40.1042 67.9122
lradius 13.7678
lwrist -60.4241
lhand -15.3924 24.4102
lfingers 7.12502
lthumb 10.7863 54.1133
rfemur -12.0071 -2.1926 20.425
rtibia 59.2581
rfoot 7.45962 -16.6836
rtoes 2.72959
lfemur -23.3143 -1.37822 -16.5784
ltibia 25.9099
lfoot -5.54508 2.17429
ltoes 0.138339
373
root -23.6509 17.771 4.49697 526.865 -82.5909 -521.433
lowerback 0.914521 0.879518 0.457656
upperback -1.81659 1.18325 0.536671
thorax -2.37653 0.582797 0.258929
lowerneck -12.2879 -4.54392 -5.49699
upperneck 12.9894 -6.8952 10.2223
head 6.52737 -2.87262 3.51941
rclavicle 1.1368e-014 2.38542e-015
rhumerus -18.1695 -16.1392 -72.521
rradius 22.6222
rwrist 16.454
rhand -15.261 -31.4818
rfingers 7.12502
rthumb 10.913 -421.178
lclavicle 1.1368e-014 2.38542e-015
lhumerus -19.9736 37.5933 70.0474
lradius 14.3888
lwrist -56.5842
lhand -15.9007 24.794
lfingers 7.12502
lthumb 10.296 54.5219
rfemur -13.1323 -2.58337 20.2014
rtibia 60.7754
rfoot 6.72947 -17.9479
rtoes 3.97329
lfemur -22.4318 -1.45515 -17.0193
ltibia 25.7159
lfoot -5.97759 2.18501
ltoes 0.0994094
374
root -23.7945 17.7871 4.5109 527.448 -82.6552 -522.216
lowerback 0.935668 0.78644 0.345682
upperback -1.8274 1.05722 0.554326
thorax -2.40168 0.522053 0.343052
lowerneck -12.2443 -4.52025 -5.5003
upperneck 13.0898 -6.87336 10.2089
head 6.54928 -2.86338 3.51897
rclavicle 7.97002e-015 -9.93923e-016
rhumerus -17.0822 -14.8284 -73.1087
rradius 23.4947
rwrist 15.3388
rhand -15.1752 -31.5197
rfingers 7.12502
rthumb 10.9958 -421.212
lclavicle 7.97002e-015 -9.93923e-016
lhumerus -17.6685 34.9542 71.9131
lradius 15.0964
lwrist -52.6068
lhand -16.4554 25.0666
lfingers 7.12502
lthumb 9.76078 54.8204
rfemur -14.2351 -2.94907 20.1059
rtibia 62.0902
rfoot 6.07324 -19.0234
rtoes 5.26238
lfemur -21.5357 -1.50802 -17.3365
ltibia 25.4894
lfoot -6.38666 2.16951
ltoes 0.0567255
375
root -23.9369 17.8044 4.52358 527.42 -82.71 -522.38
lowerback 0.959122 0.691306 0.298746
upperback -1.83671 0.930324 0.606578
thorax -2.42558 0.459951 0.426372
lowerneck -12.2029 -4.49421 -5.51147
upperneck 13.187 -6.84494 10.1889
head 6.57002 -2.85175 3.51835
rclavicle -2.5345e-015 8.05078e-015
rhumerus -16.0472 -13.4778 -73.6473
rradius 24.4187
rwrist 14.3147
rhand -15.0696 -31.5113
rfingers 7.12502
rthumb 11.0976 -421.198
lclavicle -2.5345e-015 8.05078e-015
lhumerus -15.6173 32.2674 73.5097
lradius 15.8931
lwrist -48.5801
lhand -17.0101 25.2409
lfingers 7.12502
lthumb 9.22563 55.0191
rfemur -15.3212 -3.28407 20.1153
rtibia 63.2138
rfoot 5.51538 -19.8595
rtoes 6.42581
lfemur -20.6362 -1.55187 -17.5464
ltibia 25.2355
lfoot -6.75943 2.1429
ltoes -0.0260297
376
root -24.0786 17.8224 4.53544 527.001 -82.7601 -522.146
lowerback 0.978983 0.595079 0.291293
upperback -1.84217 0.803135 0.68308
thorax -2.44288 0.397165 0.51265
lowerneck -12.1638 -4.46648 -5.52731
upperneck 13.2817 -6.81093 10.1589
head 6.58967 -2.8383 3.51579
rclavicle 9.40811e-015 1.90833e-014
rhumerus -15.0682 -12.0905 -74.138
rradius 25.4004
rwrist 13.366
rhand -14.9607 -31.4751
rfingers 7.12502
rthumb 11.2027 -421.156
lclavicle 9.40811e-015 1.90833e-014
lhumerus -13.7879 29.6291 74.856
lradius 16.7765
lwrist -44.5936
lhand -17.511 25.3322
lfingers 7.12502
lthumb 8.74224 55.1312
rfemur -16.3874 -3.59128 20.1882
rtibia 64.1567
rfoot 5.03649 -20.4198
rtoes 7.33902
lfemur -19.7319 -1.60173 -17.6895
ltibia 24.9524
lfoot -7.10315 2.12192
ltoes -0.120749
377
root -24.2195 17.8409 4.54658 526.466 -82.8128 -521.788
lowerback 0.996884 0.498851 0.288321
upperback -1.84835 0.67619 0.772064
thorax -2.45956 0.334498 0.609339
lowerneck -12.1227 -4.44005 -5.5476
upperneck 13.3817 -6.77577 10.1149
head 6.61014 -2.82548 3.50963
rclavicle 4.72735e-015 8.54774e-015
rhumerus -14.1447 -10.6953 -74.5811
rradius 26.4284
rwrist 12.5011
rhand -14.882 -31.3883
rfingers 7.12502
rthumb 11.2785 -421.065
lclavicle 4.72735e-015 8.54774e-015
lhumerus -12.1546 27.0922 75.9783
lradius 17.7412
lwrist -40.7254
lhand -17.9546 25.3292
lfingers 7.12502
lthumb 8.31415 55.1456
rfemur -17.4317 -3.8706 20.2803
rtibia 64.9244
rfoot 4.56652 -20.699
rtoes 7.94589
lfemur -18.8243 -1.67088 -17.8119
ltibia 24.6367
lfoot -7.41362 2.1165
ltoes -0.217968
